PathFileType	4	(X/Y/Z)	C:\Users\chris\Documents\GitHub\baseballds\vids\pitch5_Sports2D\pitch5_Sports2D_px_person02.trc
DataRate	CameraRate	NumFrames	NumMarkers	Units	OrigDataRate	OrigDataStartFrame	OrigNumFrames
30	30	6	22	m	30	111	149
Frame#	Time	Hip			RHip			RKnee			RAnkle			RBigToe			RSmallToe			RHeel			LHip			LKnee			LAnkle			LBigToe			LSmallToe			LHeel			Neck			Head			Nose			RShoulder			RElbow			RWrist			LShoulder			LElbow			LWrist		
		X1	Y1	Z1	X2	Y2	Z2	X3	Y3	Z3	X4	Y4	Z4	X5	Y5	Z5	X6	Y6	Z6	X7	Y7	Z7	X8	Y8	Z8	X9	Y9	Z9	X10	Y10	Z10	X11	Y11	Z11	X12	Y12	Z12	X13	Y13	Z13	X14	Y14	Z14	X15	Y15	Z15	X16	Y16	Z16	X17	Y17	Z17	X18	Y18	Z18	X19	Y19	Z19	X20	Y20	Z20	X21	Y21	Z21	X22	Y22	Z22
111	3.6999999999999997	1581.523850966206	505.32029570254775	0.0	1588.518416520693	508.71636700518627	0.0	1592.19781301574	540.8335696036486	0.0	1574.3259665497726	539.9412228391502	0.0	1571.7475050153712	548.6819305736352	0.0	1574.0301428896253	551.3211061741189	0.0	1569.482485295711	533.9603510015609	0.0	1573.5241570830572	508.224270503083	0.0	1578.2166509057	541.2183313371733	0.0	1579.152449634024	570.6095110406785	0.0	1582.4897718436175	576.6907905534769	0.0	1580.2167505639572	575.3472969530415	0.0	1577.7329775887247	574.3927947572798	0.0	1586.928202923957	465.16851363895887	0.0	1589.4988630313571	453.0697196350522	0.0	1593.3620117172554	457.2613148351454	0.0	1599.701421492756	471.08722072682417	0.0	1606.2589386853892	489.64882364797734	0.0	1601.5042533792773	491.8583362124573	0.0	1571.0203568707284	471.3438150267317	0.0	1556.5375754881525	486.2257014220939	0.0	1566.8950432090478	494.8586000245398	0.0
112	3.7333333333333334	1584.0704022168193	506.5884608085156	0.0	1590.9147179307977	509.9404268324341	0.0	1596.1961953528892	540.997396920827	0.0	1580.0067586954024	540.1209944739179	0.0	1579.17256525211	546.5228845474644	0.0	1581.4643909890451	551.2033555152341	0.0	1575.0557623834193	535.1613064346153	0.0	1576.1808647109813	509.7334541896186	0.0	1579.6082347248446	540.9835160236144	0.0	1578.6348174517095	570.9685959777922	0.0	1580.9413958621735	576.9903902938249	0.0	1578.8406948214172	576.2207597340941	0.0	1577.776723463348	574.631790256953	0.0	1589.345766958506	466.3047024649675	0.0	1591.2624603731438	454.6286248234042	0.0	1594.4980224116084	458.1862920301967	0.0	1601.8003066082752	471.40757318458844	0.0	1608.2392602379743	489.83641115635123	0.0	1607.4578955584452	492.0708745875655	0.0	1573.6553633322433	472.7921793007232	0.0	1559.8309408506236	488.73627089584613	0.0	1571.393646362663	495.71394583385296	0.0
113	3.7666666666666666	1586.9062455951553	506.0814680550716	0.0	1593.9379820710508	509.6343968664434	0.0	1599.4364782133575	539.438912565367	0.0	1584.9012375387854	541.3382332368309	0.0	1585.4264069845503	548.4531905384522	0.0	1586.8693316410481	553.194414133668	0.0	1579.9256303620532	537.9179731123211	0.0	1579.1190342365144	509.6618010049476	0.0	1580.4663162272755	539.9854644447144	0.0	1578.2566766795421	571.0444093956701	0.0	1579.5939246326038	576.326151186131	0.0	1577.3460798016658	576.464849675452	0.0	1577.970166580569	574.8992303782109	0.0	1592.1272617186837	465.55141763243813	0.0	1593.8739635148263	454.09475324450096	0.0	1597.6005795131202	457.32003433837633	0.0	1604.0994055727303	469.98739958661065	0.0	1610.8972928739563	487.83006229157655	0.0	1612.6378869289126	491.23765282509453	0.0	1576.6191940887802	471.98274855546845	0.0	1563.9081131539665	489.1043101193578	0.0	1576.3887170710295	494.1213999652542	0.0
114	3.8	1590.1633129718657	503.78244522242727	0.0	1597.6314974177367	507.74785880670726	0.0	1602.2717035513012	536.5998771386794	0.0	1589.206352139346	544.1086432440276	0.0	1589.8777354538754	555.4463794737123	0.0	1590.4702334662086	558.0463683146478	0.0	1584.5100064959884	542.1430233891293	0.0	1582.3407745425313	507.74639296545297	0.0	1581.301977384519	538.1634562431638	0.0	1578.236326352659	570.1985821570202	0.0	1579.2230593017946	575.2367486746867	0.0	1576.5128372891913	575.557668995957	0.0	1578.243606642212	574.4716110806107	0.0	1595.5095684148184	463.1302553912627	0.0	1597.5793273799663	451.708252488766	0.0	1602.2511118178995	454.8774965954127	0.0	1606.8368467516511	467.07377221285935	0.0	1612.9391810011073	482.9768318481577	0.0	1617.003463844941	489.55266707091994	0.0	1580.2347500744784	469.4174490552142	0.0	1568.42020447797	487.2770230976385	0.0	1580.8498439717505	491.0655505637647	0.0
115	3.8333333333333335	1593.7435158756682	500.60613571587703	0.0	1601.577697137654	504.8813790301422	0.0	1605.0633469339684	533.7285999116242	0.0	1593.4398659591754	548.4451814811388	0.0	1594.0774825721219	564.3369572285233	0.0	1594.3040992704962	564.2880926632554	0.0	1589.1619334106822	547.9170492277491	0.0	1585.7281790069019	504.68607373782635	0.0	1582.374887356716	535.9632336773957	0.0	1578.5062926962516	568.0771421315083	0.0	1580.0109544265463	574.3758979840453	0.0	1576.9128588115884	573.626248742617	0.0	1578.4931872867153	572.6865801145184	0.0	1599.235325701111	459.858460874554	0.0	1601.827884011918	448.35292654745257	0.0	1606.8528855548757	451.59237841176974	0.0	1609.9013532291906	463.45898279296404	0.0	1613.7127068543095	476.35949338129615	0.0	1620.8960426470767	486.98996988997743	0.0	1584.244099348653	466.1137746542897	0.0	1572.9412625181326	484.17495532162036	0.0	1584.443686033567	487.83805977267184	0.0
116	3.8666666666666667	1597.1834339520983	497.51980128790433	0.0	1605.2534306917291	501.80169191529075	0.0	1607.7718424867105	531.7510809286441	0.0	1598.1443219877003	553.6387167537033	0.0	1599.5948940684461	570.0219502576883	0.0	1600.0008716537634	568.8879567980048	0.0	1594.36576506465	554.8781890101965	0.0	1589.018099307306	501.48000124723586	0.0	1583.695715419834	533.5081324637057	0.0	1579.0426775061267	564.458389385501	0.0	1581.3322905906773	573.2357963515801	0.0	1577.8544832054172	571.4588260191732	0.0	1578.870522225012	569.0607375380224	0.0	1602.8220470967944	456.6633472507148	0.0	1606.0348526068437	444.7804991421119	0.0	1611.0976880970886	448.4309262720018	0.0	1612.806450365613	460.2015079099104	0.0	1613.9678448154582	470.5864771640563	0.0	1623.7992568835186	484.3336822729084	0.0	1588.1058401380465	462.92974614408945	0.0	1577.0527805806273	480.71862745598634	0.0	1587.5433461023401	485.0383548156268	0.0
